<?xml version="1.0" standalone="no"?>
<!DOCTYPE svg PUBLIC "-//W3C//DTD SVG 20010904//EN"
 "http://www.w3.org/TR/2001/REC-SVG-20010904/DTD/svg10.dtd">
<svg version="1.0" xmlns="http://www.w3.org/2000/svg"
 width="303.000000pt" height="303.000000pt" viewBox="0 0 303.000000 303.000000"
 preserveAspectRatio="xMidYMid meet">
<metadata>
Created by potrace 1.14, written by Peter Selinger 2001-2017
</metadata>
<g transform="translate(0.000000,303.000000) scale(0.100000,-0.100000)"
fill="#000000" stroke="none">
<path d="M1255 2533 c-84 -45 -141 -112 -164 -191 -7 -24 -10 -46 -8 -48 2 -3
10 15 16 39 7 24 24 57 37 73 21 24 23 25 10 4 -23 -40 -68 -200 -61 -218 3
-9 3 -13 -1 -9 -4 4 -13 2 -21 -4 -17 -15 -17 -14 6 49 11 28 16 52 12 52 -3
0 -14 -22 -24 -49 -10 -29 -31 -61 -49 -77 l-33 -27 30 7 c45 9 265 10 400 1
98 -6 128 -12 165 -32 28 -15 46 -31 47 -43 3 -36 -16 -31 -64 15 -44 41 -73
59 -58 36 3 -5 -2 -11 -11 -13 -14 -3 -13 -7 6 -30 30 -39 15 -35 -27 7 -35
35 -69 50 -41 18 21 -24 20 -55 -1 -44 -9 5 -24 7 -33 6 -9 -2 -15 2 -12 9 3
7 -7 23 -22 36 -14 14 -25 21 -24 15 5 -22 -1 -27 -17 -14 -10 8 -14 9 -10 2
4 -6 2 -15 -4 -19 -7 -4 -9 -3 -6 3 4 6 0 19 -8 29 -8 10 -15 14 -15 7 0 -18
22 -63 29 -58 4 2 7 -5 7 -15 0 -18 -1 -18 -19 -2 -11 9 -26 30 -34 45 -11 23
-17 26 -28 17 -11 -9 -12 -17 -4 -31 15 -30 2 -22 -16 9 -9 15 -13 18 -10 7
16 -45 16 -52 2 -52 -8 0 -12 7 -10 16 2 9 -3 25 -11 36 -14 19 -15 18 -11
-12 4 -38 -20 -53 -44 -27 -15 15 -14 16 2 10 12 -4 17 -2 15 6 -5 14 -38 20
-38 6 0 -6 -9 0 -20 13 -25 30 -25 23 -1 -26 13 -28 26 -40 42 -41 37 -2 140
-14 174 -19 91 -16 229 -48 258 -59 50 -21 61 -11 35 32 -19 33 -20 35 -2 20
10 -9 28 -32 38 -50 10 -18 13 -27 6 -21 -9 8 -18 9 -25 3 -7 -6 -28 -4 -58 5
-26 8 -47 12 -47 10 0 -2 14 -20 31 -40 18 -20 29 -38 27 -41 -3 -3 -20 13
-38 36 -17 22 -35 40 -40 40 -17 0 -19 -32 -5 -66 17 -42 11 -45 -10 -4 -18
35 -40 40 -32 7 8 -28 -6 -52 -23 -42 -10 6 -12 2 -8 -13 9 -33 1 -26 -22 18
-11 22 -29 46 -40 52 -11 7 -20 18 -20 24 0 15 -28 26 -35 14 -3 -4 7 -19 23
-32 33 -28 78 -90 60 -83 -7 3 -23 21 -36 40 -21 34 -50 49 -39 22 3 -8 -1
-14 -8 -14 -11 0 -11 5 -4 19 7 13 7 23 0 32 -6 7 -8 16 -4 19 3 4 -1 7 -10 7
-20 0 -20 -1 -8 -32 4 -13 5 -31 2 -40 -6 -16 -7 -16 -19 3 -8 12 -9 18 -3 14
6 -3 11 -1 11 4 0 6 -9 11 -21 11 -11 0 -17 5 -14 10 4 6 11 8 16 5 5 -4 9 -1
9 5 0 7 -7 10 -15 7 -18 -7 -30 9 -13 17 7 3 0 4 -16 0 -17 -3 -36 -13 -44
-22 -9 -12 -12 -13 -7 -2 4 10 2 9 -8 -2 -8 -10 -24 -18 -35 -18 -11 0 -23 -4
-26 -9 -3 -5 -27 -9 -53 -9 -115 -2 -211 -38 -264 -98 -35 -38 -48 -51 -84
-80 -11 -8 -14 -12 -6 -8 7 4 3 -7 -9 -24 -13 -17 -26 -29 -31 -27 -4 3 -10
-2 -13 -11 -3 -8 -2 -12 4 -9 6 3 1 -10 -11 -29 -21 -37 -36 -48 -25 -21 3 8
1 15 -4 15 -6 0 -10 -6 -10 -12 0 -10 -2 -10 -8 0 -10 14 -65 -41 -117 -117
-83 -121 -83 -121 -89 -105 -9 23 -7 69 3 79 6 6 4 15 -5 23 -9 8 -14 9 -14 2
0 -6 -4 -9 -9 -6 -5 3 -11 -4 -15 -17 -8 -31 -7 -37 4 -37 6 0 10 9 10 20 0
11 4 20 9 20 16 0 -1 -40 -20 -51 -11 -5 -18 -6 -17 -2 2 4 -1 10 -7 13 -5 3
-11 -3 -13 -12 -2 -12 3 -18 16 -18 21 0 52 -39 52 -65 0 -33 34 -11 54 35 8
19 15 31 16 26 0 -5 7 -3 16 5 13 11 14 9 8 -17 -4 -16 -11 -35 -17 -41 -5 -7
-7 -13 -3 -13 13 0 -47 -104 -80 -138 -19 -19 -34 -45 -34 -58 0 -20 -45 -64
-65 -64 -16 0 2 46 22 56 16 7 19 14 12 21 -11 11 5 28 26 28 5 0 10 7 10 15
1 31 17 79 31 91 18 15 18 29 0 29 -9 0 -13 8 -10 23 2 12 1 16 -2 9 -5 -10
-9 -10 -20 -1 -11 9 -14 8 -14 -4 0 -9 10 -23 22 -31 22 -15 22 -16 2 -16 -23
0 -37 32 -53 124 -13 72 -13 68 -2 61 5 -3 12 -1 16 5 3 5 1 10 -4 10 -6 0
-11 8 -11 18 0 14 2 15 10 2 8 -12 10 -11 10 8 0 29 -3 38 -13 34 -5 -1 -6 2
-2 8 3 6 11 8 16 5 5 -4 13 4 18 17 9 21 10 20 10 -12 l1 -35 15 29 c8 15 15
37 15 47 0 11 5 19 10 19 6 0 10 5 10 11 0 6 9 22 20 36 34 44 21 50 -17 8
-34 -39 -35 -39 -19 -8 21 41 20 49 -1 32 -16 -13 -17 -12 -4 3 7 10 17 16 21
13 9 -5 24 24 21 39 -1 5 22 33 51 63 58 59 189 164 149 120 -28 -31 -21 -49
9 -22 18 16 20 17 20 1 0 -9 -11 -21 -25 -26 -14 -5 -25 -14 -25 -20 0 -6 -7
-10 -16 -8 -11 2 -18 -5 -19 -20 -1 -13 -9 -31 -19 -40 -16 -16 -18 -16 -32 2
-14 19 -14 19 -39 -4 -24 -23 -33 -41 -17 -39 19 3 22 -2 8 -17 -19 -19 -21
-34 -3 -34 15 0 195 180 222 223 10 16 24 26 31 23 8 -3 14 -1 14 5 0 6 5 7
11 4 6 -4 22 3 35 16 21 20 28 21 44 11 17 -10 20 -10 20 4 0 10 6 14 14 11
11 -4 13 -1 9 10 -5 13 -3 13 14 4 11 -5 30 -8 42 -6 12 2 19 0 16 -5 -3 -5
-1 -11 5 -15 5 -3 10 -1 10 5 0 6 6 8 13 4 6 -4 3 2 -7 14 -20 23 -46 29 -46
12 0 -6 -8 -5 -19 2 -11 7 -17 16 -14 21 3 5 -10 7 -28 5 -19 -2 -34 -8 -34
-15 0 -6 -4 -15 -8 -20 -5 -4 -8 -3 -7 2 5 24 -2 25 -37 5 -23 -13 -30 -15
-18 -5 11 10 39 26 63 37 24 11 41 22 39 25 -10 9 -170 -81 -247 -138 -268
-200 -368 -418 -304 -664 16 -60 15 -61 -10 -118 -49 -106 -45 -132 22 -139
28 -3 46 8 127 72 52 41 94 79 95 84 0 5 -7 3 -15 -4 -9 -7 -18 -10 -21 -7 -3
3 5 13 19 22 14 9 28 26 31 38 5 17 8 19 15 8 7 -11 12 -8 26 13 9 14 21 23
26 20 5 -3 9 1 9 10 0 8 3 22 7 32 5 13 3 15 -7 9 -9 -5 -11 -4 -6 4 4 6 11 9
16 6 10 -6 25 34 16 42 -3 4 -6 -1 -6 -11 0 -10 -6 -16 -16 -14 -17 3 -54 -38
-58 -65 -1 -8 -22 -38 -46 -64 -25 -27 -65 -72 -90 -101 -48 -55 -73 -73 -63
-44 4 9 32 55 63 102 81 123 130 206 130 222 0 36 106 128 130 113 6 -4 13 1
16 9 3 9 15 16 25 16 13 0 17 5 13 18 -3 9 2 6 10 -8 17 -27 22 -10 6 20 -8
15 -6 17 10 13 11 -3 20 -10 20 -15 0 -5 4 -7 10 -3 5 3 6 13 3 22 -5 12 -3
14 7 8 10 -6 12 -4 6 11 -6 16 -4 16 14 -3 26 -29 34 -29 20 -2 -7 11 -10 23
-7 25 2 3 10 -9 17 -26 9 -22 15 -27 21 -19 6 10 11 10 22 0 13 -10 15 -9 10
11 -6 22 -5 22 14 6 24 -22 34 -23 26 -3 -5 13 -2 14 20 4 25 -11 43 -37 32
-47 -3 -3 -5 0 -5 6 0 7 -4 12 -8 12 -5 0 -7 -13 -4 -29 2 -16 -1 -32 -7 -36
-8 -5 -10 2 -6 22 l5 28 -13 -28 c-7 -15 -16 -24 -20 -21 -4 4 -7 -8 -8 -27 0
-34 0 -34 -16 -11 -20 28 -36 29 -28 1 5 -16 4 -19 -5 -14 -8 5 -18 1 -27 -10
-10 -14 -13 -15 -14 -4 0 8 -4 6 -9 -6 -13 -29 -12 -47 2 -39 7 4 8 3 4 -5 -9
-13 -26 -5 -26 13 0 7 -7 21 -15 32 -15 19 -15 19 -8 0 5 -15 3 -18 -10 -13
-9 3 -17 2 -17 -3 0 -5 -8 -6 -17 -3 -16 6 -16 5 -4 -10 20 -25 6 -33 -15 -9
-15 18 -19 19 -39 6 -12 -8 -25 -11 -28 -7 -4 3 -7 -3 -7 -15 0 -12 5 -22 11
-22 5 0 8 4 4 9 -3 5 -1 12 5 16 6 4 10 -6 10 -24 0 -17 -4 -31 -9 -31 -5 0
-13 -10 -16 -22 -4 -13 -19 -33 -34 -46 -14 -13 -21 -22 -16 -20 18 7 128 59
241 114 143 70 160 70 201 1 74 -124 201 -208 325 -215 37 -3 75 -2 83 2 23 8
4 39 -41 67 -23 14 -43 38 -55 65 -10 24 -37 68 -60 99 -22 30 -39 60 -37 66
2 7 23 13 46 14 44 2 72 18 72 41 0 8 5 14 10 14 6 0 10 -7 10 -15 0 -8 -5
-15 -11 -15 -5 0 -7 -5 -4 -10 4 -6 11 -7 17 -4 6 4 24 7 40 6 18 0 26 3 22
10 -5 7 -2 8 6 3 7 -4 63 -9 124 -10 133 -3 219 -13 266 -30 87 -32 197 -73
222 -83 21 -9 29 -8 39 4 10 12 9 13 -5 8 -9 -3 -32 1 -52 11 l-35 16 27 22
c15 11 36 22 47 22 21 2 39 24 30 38 -3 5 4 4 15 -2 28 -15 37 -32 23 -41 -15
-9 -11 -31 9 -48 13 -12 13 -13 -2 -8 -25 8 -23 -17 4 -40 19 -17 21 -17 15
-1 -10 28 7 19 25 -13 9 -17 22 -30 29 -30 7 0 4 9 -7 21 -19 22 -19 22 4 8
12 -8 22 -16 23 -19 0 -3 2 -14 4 -25 2 -11 6 -31 9 -43 5 -21 3 -22 -11 -10
-44 36 -81 81 -52 62 8 -4 8 0 0 15 -13 24 -26 29 -17 6 9 -25 -10 -17 -22 10
-7 16 -17 23 -27 19 -11 -5 -12 -11 -4 -25 5 -10 13 -19 17 -19 8 0 119 -109
187 -185 20 -22 33 -34 29 -26 -4 9 -3 12 4 7 6 -4 9 -13 6 -20 -3 -8 10 -26
28 -41 18 -15 26 -24 18 -20 -10 4 -9 1 3 -8 9 -8 17 -22 17 -31 0 -12 5 -16
18 -12 18 6 38 -10 57 -44 6 -10 1 -9 -13 3 -11 11 -36 19 -56 20 -30 1 -33 3
-25 18 20 38 7 31 -22 -11 -43 -65 -71 -119 -64 -130 3 -5 -1 -28 -9 -52 -32
-93 -48 -209 -32 -225 2 -2 15 7 28 20 13 13 55 42 93 64 75 44 114 81 137
128 8 17 21 29 28 27 48 -11 79 -7 167 24 54 19 112 34 130 34 18 0 33 3 33 6
0 14 -66 95 -99 121 -48 39 -81 50 -175 63 -44 6 -81 12 -83 14 -2 2 -6 16 -9
32 -44 260 -195 525 -434 764 -171 171 -337 277 -476 304 -171 34 -271 94
-315 189 -31 70 -19 136 35 186 20 19 23 27 15 38 -15 18 -77 16 -114 -4z
m-95 -189 c0 -32 -4 -44 -12 -42 -17 6 -22 42 -8 67 16 31 20 26 20 -25z m14
-110 c3 -8 2 -12 -4 -9 -6 3 -10 10 -10 16 0 14 7 11 14 -7z m-5 -40 c7 19 8
19 13 -2 5 -16 2 -22 -10 -22 -29 0 -46 16 -37 36 6 17 8 17 17 -6 9 -23 11
-24 17 -6z m-56 -9 c-7 -21 -13 -19 -13 6 0 11 4 18 10 14 5 -3 7 -12 3 -20z
m102 5 c3 -5 1 -10 -4 -10 -6 0 -11 5 -11 10 0 6 2 10 4 10 3 0 8 -4 11 -10z
m143 -125 c-3 -3 -9 2 -12 12 -6 14 -5 15 5 6 7 -7 10 -15 7 -18z m170 -10
c-3 -3 -9 2 -12 12 -6 14 -5 15 5 6 7 -7 10 -15 7 -18z m142 3 c0 -6 -6 -5
-15 2 -8 7 -15 14 -15 16 0 2 7 1 15 -2 8 -4 15 -11 15 -16z m35 -8 c3 -6 -1
-7 -9 -4 -18 7 -21 14 -7 14 6 0 13 -4 16 -10z m-344 -22 c11 -21 11 -22 -4
-9 -10 7 -17 17 -17 22 0 15 9 10 21 -13z m53 -4 c5 -14 4 -15 -9 -4 -17 14
-19 20 -6 20 5 0 12 -7 15 -16z m106 -19 c7 -9 8 -15 2 -15 -5 0 -12 7 -16 15
-3 8 -4 15 -2 15 2 0 9 -7 16 -15z m-26 -14 c16 -18 16 -18 -11 -13 -15 3 -22
7 -15 10 6 2 10 8 6 13 -9 15 2 10 20 -10z m-808 -16 c-1 -8 -6 -18 -11 -22
-4 -4 -5 -2 0 6 5 9 3 12 -6 9 -8 -3 -13 -10 -12 -16 2 -6 -4 -9 -13 -5 -12 4
-10 10 13 24 34 23 32 22 29 4z m1174 -65 c6 -11 8 -20 6 -20 -3 0 -10 9 -16
20 -6 11 -8 20 -6 20 3 0 10 -9 16 -20z m-665 0 c3 -5 2 -10 -4 -10 -5 0 -13
5 -16 10 -3 6 -2 10 4 10 5 0 13 -4 16 -10z m395 -35 c14 -19 14 -19 -2 -6
-10 7 -18 18 -18 24 0 6 1 8 3 6 1 -2 9 -13 17 -24z m270 -48 c0 -13 -36 27
-43 48 -5 14 0 11 18 -10 14 -16 25 -34 25 -38z m-800 33 c0 -5 -9 -6 -20 -3
-11 3 -17 9 -15 14 7 10 35 1 35 -11z m-107 -7 c-13 -2 -23 -11 -23 -18 0 -8
-5 -17 -10 -20 -6 -4 -9 -1 -8 6 2 6 -3 14 -9 16 -7 3 -13 0 -13 -6 0 -6 -7
-8 -16 -4 -13 5 -10 9 12 18 15 6 42 11 58 12 21 0 24 -1 9 -4z m191 -29 c3
-8 2 -12 -4 -9 -6 3 -10 10 -10 16 0 14 7 11 14 -7z m500 -10 c7 -19 2 -18
-19 6 -16 17 -16 20 -3 15 9 -4 19 -13 22 -21z m56 16 c0 -5 -5 -10 -11 -10
-5 0 -7 5 -4 10 3 6 8 10 11 10 2 0 4 -4 4 -10z m280 4 c0 -8 -19 -13 -24 -6
-3 5 1 9 9 9 8 0 15 -2 15 -3z m-1015 -24 c10 -11 16 -20 13 -20 -3 0 -13 9
-23 20 -10 11 -16 20 -13 20 3 0 13 -9 23 -20z m-95 -22 c0 -6 -3 -8 -7 -5 -3
4 -13 1 -22 -6 -14 -11 -14 -10 -2 6 15 20 31 22 31 5z m30 -23 c0 -5 -5 -3
-10 5 -5 8 -10 20 -10 25 0 6 5 3 10 -5 5 -8 10 -19 10 -25z m1153 6 c19 -33
22 -45 7 -36 -14 9 -42 65 -32 65 4 0 15 -13 25 -29z m-1224 -18 l12 -28 -22
25 c-19 23 -20 23 -16 4 3 -13 -1 -21 -9 -21 -7 0 -12 3 -10 6 2 3 6 14 9 24
9 25 22 21 36 -10z m829 -6 c-2 -12 3 -21 12 -22 8 -2 23 -6 33 -10 13 -6 16
-4 11 10 -12 30 33 -1 51 -35 20 -38 19 -47 -2 -28 -27 23 -47 33 -39 20 4 -7
3 -12 -2 -12 -6 0 -12 6 -15 14 -3 8 -14 14 -24 14 -10 0 -22 0 -28 2 -32 8
-31 -4 2 -32 79 -67 77 -66 65 -42 -6 12 -18 24 -27 28 -8 3 -15 12 -15 21 0
13 8 10 35 -11 19 -14 35 -23 35 -19 0 4 11 0 24 -8 23 -15 24 -15 19 6 -3 13
-1 18 4 12 4 -5 15 -11 23 -13 9 -2 2 10 -14 27 -55 58 -16 45 44 -14 33 -33
60 -53 60 -45 0 8 -14 27 -32 42 -18 14 -30 29 -27 32 10 10 109 -88 109 -107
0 -16 -2 -16 -24 -2 -18 12 -26 13 -31 4 -8 -12 14 -31 27 -23 4 3 7 -6 6 -20
-1 -14 -8 -28 -15 -30 -17 -7 -29 14 -13 24 13 8 14 7 -40 38 l-25 14 23 -20
c30 -27 28 -42 -5 -36 -24 5 -25 3 -12 -13 13 -16 12 -17 -3 -4 -10 7 -16 17
-13 21 3 4 -3 14 -12 21 -15 12 -16 12 -10 -3 5 -14 1 -18 -18 -18 -17 0 -25
-6 -25 -18 0 -19 36 -46 50 -37 6 3 17 2 26 -3 14 -8 12 -10 -10 -16 -33 -8
-177 3 -192 15 -5 5 -29 6 -52 3 -30 -3 -47 0 -57 10 -11 11 -12 16 -2 19 6 3
1 6 -13 7 -14 1 -19 4 -12 7 6 2 12 9 12 15 0 6 -6 8 -14 5 -26 -10 -26 6 0
20 20 10 30 10 41 2 19 -17 24 -8 7 15 -11 16 -16 17 -29 6 -8 -7 -18 -10 -21
-7 -3 3 8 13 25 22 22 11 31 12 31 3 0 -6 6 -4 13 6 7 9 23 22 36 29 36 18 22
32 -34 33 -27 0 -54 2 -60 3 -5 1 -38 3 -72 3 -55 1 -63 3 -63 19 0 11 6 19
14 19 8 0 16 4 18 8 4 12 78 23 78 11 0 -10 -12 -12 -45 -10 -18 1 -19 1 -3
-9 19 -12 58 2 58 20 0 6 3 9 8 9 22 -4 31 3 25 19 -5 14 -2 14 18 -4 27 -24
58 -22 38 2 -19 23 -4 16 17 -8 10 -12 13 -18 7 -14 -7 4 -13 3 -13 -3 0 -20
18 -20 35 -1 18 20 18 21 -1 35 -18 13 -18 14 4 8 16 -4 22 -12 20 -26z m-778
19 c0 -2 -6 -9 -14 -15 -11 -9 -16 -9 -22 0 -4 7 -3 9 4 5 6 -3 13 -2 17 4 6
10 15 14 15 6z m55 -22 c9 -15 12 -23 6 -20 -11 7 -35 46 -28 46 3 0 12 -12
22 -26z m838 -9 c-3 -9 -8 -14 -10 -11 -3 3 -2 9 2 15 9 16 15 13 8 -4z
m-1015 -31 c0 -18 -3 -22 -9 -13 -7 11 -9 11 -9 -1 0 -13 -1 -13 -10 0 -8 12
-10 11 -10 -7 0 -13 -6 -23 -13 -23 -18 0 -18 28 0 34 8 3 11 11 7 17 -4 8 -3
9 5 5 6 -4 14 0 17 8 9 23 22 11 22 -20z m1089 16 c11 -16 10 -18 -1 -14 -15
6 -30 34 -18 34 4 0 13 -9 19 -20z m-1070 -58 c-10 -10 -17 -25 -18 -33 0 -11
-2 -11 -6 -1 -5 12 23 52 35 52 3 0 -2 -8 -11 -18z m-444 -17 c-3 -9 -8 -14
-10 -11 -3 3 -2 9 2 15 9 16 15 13 8 -4z m901 -1 c3 -8 2 -12 -4 -9 -6 3 -10
10 -10 16 0 14 7 11 14 -7z m43 -1 c10 -13 16 -15 19 -5 8 17 24 5 17 -13 -4
-11 2 -15 23 -14 16 0 23 3 17 6 -10 3 -10 8 1 19 19 18 27 18 20 -1 -8 -21 9
-19 38 4 13 11 33 18 44 16 10 -2 33 -4 49 -4 l30 -1 -25 -20 c-42 -33 -159
-83 -147 -63 3 5 -3 14 -14 21 -15 9 -19 9 -19 0 0 -6 -6 -4 -13 6 -8 10 -24
19 -38 20 -17 1 -25 8 -27 24 -4 26 6 28 25 5z m-500 -25 c-3 -8 -6 -5 -6 6
-1 11 2 17 5 13 3 -3 4 -12 1 -19z m1208 2 c-3 -5 -12 -10 -18 -10 -7 0 -6 4
3 10 19 12 23 12 15 0z m-760 -10 c3 -5 1 -10 -4 -10 -6 0 -11 5 -11 10 0 6 2
10 4 10 3 0 8 -4 11 -10z m-892 -15 c-3 -9 -8 -14 -10 -11 -3 3 -2 9 2 15 9
16 15 13 8 -4z m919 -17 c-7 -7 -12 -8 -12 -4 0 5 -7 3 -15 -4 -13 -11 -18
-11 -28 0 -9 10 -9 11 0 6 13 -7 56 16 49 26 -1 3 2 2 8 -3 7 -6 6 -13 -2 -21z
m48 12 c0 -5 -4 -10 -10 -10 -5 0 -10 5 -10 10 0 6 5 10 10 10 6 0 10 -4 10
-10z m-669 -13 c-6 -8 -8 -17 -4 -20 3 -4 1 -7 -5 -7 -14 0 -14 2 -6 24 3 9
11 16 16 16 7 0 6 -5 -1 -13z m476 7 c-3 -3 -12 -4 -19 -1 -8 3 -5 6 6 6 11 1
17 -2 13 -5z m928 -4 c-4 -6 -11 -8 -16 -5 -5 4 -9 -1 -9 -9 0 -9 -7 -16 -15
-16 -19 0 -19 5 1 24 17 18 49 22 39 6z m-51 -55 c-4 -8 -10 -12 -15 -9 -14 8
-10 24 6 24 9 0 12 -6 9 -15z m-566 -23 c13 -7 27 -10 32 -7 6 4 10 1 10 -5 0
-8 -9 -10 -25 -6 -16 4 -25 2 -25 -6 0 -18 -17 3 -25 32 -3 14 -3 21 2 15 4
-5 18 -16 31 -23z m-143 8 c-3 -5 -11 -10 -16 -10 -6 0 -7 5 -4 10 3 6 11 10
16 10 6 0 7 -4 4 -10z m551 -8 c1 -7 0 -8 -3 -2 -2 5 -9 8 -13 5 -5 -3 -12 0
-15 6 -5 7 -1 10 10 7 10 -1 20 -9 21 -16z m-496 -24 c0 -12 -6 -9 -26 13 -19
22 -19 22 4 8 12 -8 22 -17 22 -21z m154 20 c-5 -8 -2 -9 9 -5 10 3 17 3 17
-2 0 -5 -9 -11 -20 -14 -19 -5 -28 12 -13 26 10 11 15 8 7 -5z m416 -3 c7 -8
9 -15 6 -15 -4 0 -14 7 -22 15 -9 8 -11 15 -6 15 5 0 15 -7 22 -15z m98 -1
l23 -7 -23 -12 c-14 -7 -30 -9 -40 -3 -12 5 -18 5 -18 -2 0 -5 -5 -10 -10 -10
-7 0 -7 6 0 20 11 21 28 24 68 14z m82 -14 c21 -21 27 -35 11 -25 -5 3 -12 1
-16 -5 -3 -5 -14 -10 -24 -10 -14 0 -17 6 -13 30 5 35 15 37 42 10z m-770 -21
c0 -6 -4 -7 -10 -4 -5 3 -10 11 -10 16 0 6 5 7 10 4 6 -3 10 -11 10 -16z
m-339 -12 c-10 -9 -11 -8 -5 6 3 10 9 15 12 12 3 -3 0 -11 -7 -18z m244 3 c3
-6 -1 -7 -9 -4 -18 7 -21 14 -7 14 6 0 13 -4 16 -10z m-269 -12 c5 -7 3 -8 -6
-3 -10 6 -12 4 -7 -9 4 -10 3 -15 -3 -11 -13 8 -13 35 -1 35 6 0 13 -5 17 -12z
m34 -18 c0 -5 -2 -10 -4 -10 -3 0 -8 5 -11 10 -3 6 -1 10 4 10 6 0 11 -4 11
-10z m1060 -5 c-7 -8 -18 -15 -24 -15 -6 0 -2 7 8 15 25 19 32 19 16 0z
m-1173 -17 c-3 -8 -6 -5 -6 6 -1 11 2 17 5 13 3 -3 4 -12 1 -19z m1133 8 c0
-8 -51 -13 -56 -5 -3 5 9 9 25 9 17 0 31 -2 31 -4z m-1240 -28 c0 -7 -5 -20
-10 -28 -8 -12 -10 -9 -10 13 0 15 5 27 10 27 6 0 10 -6 10 -12z m-73 -13 c0
-8 -4 -15 -9 -15 -10 0 -11 14 -1 23 9 10 10 9 10 -8z m96 2 c3 -8 -1 -14 -8
-14 -7 0 -11 6 -8 14 3 7 6 13 8 13 2 0 5 -6 8 -13z m1538 -108 c13 -26 7 -24
-22 7 -17 19 -19 23 -6 18 10 -3 22 -15 28 -25z m-7 -33 c13 -14 19 -27 13
-29 -12 -4 16 -55 54 -97 11 -14 27 -37 34 -51 12 -21 12 -26 0 -26 -7 0 -11
7 -7 15 4 11 1 13 -8 7 -8 -5 -11 -4 -7 2 7 11 -21 55 -31 50 -4 -2 -20 12
-37 31 -16 20 -24 33 -17 28 19 -12 14 6 -10 31 -21 23 -32 63 -17 63 5 0 19
-11 33 -24z m220 -379 c4 -19 3 -26 -4 -22 -5 3 -10 18 -10 32 0 32 5 28 14
-10z m206 13 c0 -5 -2 -10 -4 -10 -3 0 -8 5 -11 10 -3 6 -1 10 4 10 6 0 11 -4
11 -10z"/>
<path d="M1660 1591 c0 -5 5 -13 10 -16 6 -3 10 -2 10 4 0 5 -4 13 -10 16 -5
3 -10 2 -10 -4z"/>
<path d="M1622 1560 c12 -19 27 -24 56 -21 7 1 15 -5 18 -14 4 -9 21 -23 38
-32 l31 -16 -23 25 c-12 13 -20 28 -17 31 3 4 2 5 -1 2 -4 -2 -27 7 -53 20
-56 30 -65 31 -49 5z"/>
<path d="M1760 1572 c0 -12 19 -26 26 -19 2 2 -2 10 -11 17 -9 8 -15 8 -15 2z"/>
<path d="M910 2110 c-8 -5 -10 -10 -5 -10 6 0 17 5 25 10 8 5 11 10 5 10 -5 0
-17 -5 -25 -10z"/>
<path d="M1080 2111 c0 -5 5 -13 10 -16 6 -3 10 -2 10 4 0 5 -4 13 -10 16 -5
3 -10 2 -10 -4z"/>
<path d="M1129 2103 c12 -24 31 -39 31 -25 0 5 -10 17 -21 28 -22 19 -22 19
-10 -3z"/>
<path d="M1010 2094 c0 -9 -5 -12 -12 -8 -7 4 0 -7 16 -24 25 -27 27 -32 12
-32 -10 0 -34 17 -52 37 -37 40 -44 38 -17 -5 17 -26 17 -26 0 -13 -10 8 -30
16 -45 17 -24 2 -25 1 -8 -9 10 -7 28 -20 40 -30 18 -15 15 -15 -18 2 -22 11
-43 26 -47 33 -7 10 -11 10 -21 0 -7 -7 -8 -12 -1 -12 5 0 28 -12 49 -26 21
-15 45 -28 54 -29 20 -3 41 15 33 28 -3 6 -1 7 6 3 6 -4 24 -5 40 -1 23 5 29
11 27 29 -4 30 -15 48 -27 41 -5 -4 -9 -1 -9 4 0 6 -4 11 -10 11 -5 0 -10 -7
-10 -16z m31 -31 c13 -16 12 -17 -3 -4 -10 7 -18 15 -18 17 0 8 8 3 21 -13z"/>
<path d="M1565 2080 c10 -11 20 -18 23 -15 7 6 -18 35 -31 35 -5 0 -2 -9 8
-20z"/>
<path d="M880 1961 c0 -6 5 -13 10 -16 6 -3 10 1 10 9 0 9 -4 16 -10 16 -5 0
-10 -4 -10 -9z"/>
<path d="M830 1951 c0 -6 -8 -11 -18 -11 -20 0 -42 -18 -42 -34 0 -5 6 -2 13
9 8 10 19 15 25 11 6 -3 13 -2 17 4 4 6 11 8 16 5 5 -4 9 -2 9 4 0 5 -4 13
-10 16 -5 3 -10 1 -10 -4z"/>
<path d="M725 1890 c-3 -5 1 -10 9 -10 8 0 18 5 21 10 3 6 -1 10 -9 10 -8 0
-18 -4 -21 -10z"/>
<path d="M1388 1892 c-15 -3 -15 -7 -5 -23 6 -10 15 -19 20 -19 4 0 5 6 1 13
-5 8 -2 8 9 -2 20 -16 22 -3 4 19 -7 9 -20 14 -29 12z"/>
<path d="M416 1606 c-25 -23 -36 -42 -36 -62 l1 -29 39 45 c22 24 40 52 40 62
0 24 -3 23 -44 -16z"/>
<path d="M880 1482 c6 -13 14 -21 18 -18 3 4 -2 14 -12 24 -18 16 -18 16 -6
-6z"/>
<path d="M700 1431 c0 -5 5 -13 10 -16 6 -3 10 -2 10 4 0 5 -4 13 -10 16 -5 3
-10 2 -10 -4z"/>
<path d="M611 1284 c0 -11 3 -14 6 -6 3 7 2 16 -1 19 -3 4 -6 -2 -5 -13z"/>
<path d="M549 1203 c-13 -16 -12 -17 4 -4 9 7 17 15 17 17 0 8 -8 3 -21 -13z"/>
</g>
</svg>
